<svg width="14" height="14" viewBox="0 0 14 14" fill="none" xmlns="http://www.w3.org/2000/svg">
<rect x="0.5" y="7.5" width="13" height="6" fill="white" stroke="#B2B3BD"/>
<path d="M10.5 0.96875V2.9375H12.4688C12.5964 2.9375 12.7012 2.97852 12.7832 3.06055C12.8652 3.14258 12.9062 3.2474 12.9062 3.375C12.9062 3.5026 12.8652 3.60742 12.7832 3.68945C12.7012 3.77148 12.5964 3.8125 12.4688 3.8125H10.5V5.78125C10.5 5.90885 10.459 6.01367 10.377 6.0957C10.2949 6.17773 10.1901 6.21875 10.0625 6.21875C9.9349 6.21875 9.83008 6.17773 9.74805 6.0957C9.66602 6.01367 9.625 5.90885 9.625 5.78125V3.8125H7.65625C7.52865 3.8125 7.42383 3.77148 7.3418 3.68945C7.25977 3.60742 7.21875 3.5026 7.21875 3.375C7.21875 3.2474 7.25977 3.14258 7.3418 3.06055C7.42383 2.97852 7.52865 2.9375 7.65625 2.9375H9.625V0.96875C9.625 0.841146 9.66602 0.736328 9.74805 0.654297C9.83008 0.572266 9.9349 0.53125 10.0625 0.53125C10.1901 0.53125 10.2949 0.572266 10.377 0.654297C10.459 0.736328 10.5 0.841146 10.5 0.96875Z" fill="#B2B3BD"/>
</svg>
