<svg width="15" height="16" viewBox="0 0 15 16" fill="none" xmlns="http://www.w3.org/2000/svg">
<path d="M5.724 2H10.224V0.75C10.2657 0.291667 10.5157 0.0416667 10.974 0C11.4323 0.0416667 11.6823 0.291667 11.724 0.75V2H12.974C13.5365 2.02083 14.0052 2.21875 14.3802 2.59375C14.7552 2.96875 14.9532 3.4375 14.974 4V14C14.9532 14.5625 14.7552 15.0312 14.3802 15.4062C14.0052 15.7812 13.5365 15.9792 12.974 16H2.974C2.4115 15.9792 1.94275 15.7812 1.56775 15.4062C1.19275 15.0312 0.994832 14.5625 0.973999 14V4C0.994832 3.4375 1.19275 2.96875 1.56775 2.59375C1.94275 2.21875 2.4115 2.02083 2.974 2H4.224V0.75C4.26567 0.291667 4.51567 0.0416667 4.974 0C5.43233 0.0416667 5.68233 0.291667 5.724 0.75V2ZM2.474 14C2.49483 14.3125 2.6615 14.4792 2.974 14.5H12.974C13.2865 14.4792 13.4532 14.3125 13.474 14V6H2.474V14Z" fill="#717171"/>
</svg>
