<svg width="14" height="14" viewBox="0 0 14 14" fill="none" xmlns="http://www.w3.org/2000/svg">
<path d="M13.2715 2.42773C13.4238 2.58008 13.5 2.76628 13.5 2.98633V8.75C13.4831 9.20703 13.3223 9.58789 13.0176 9.89258C12.7129 10.1973 12.332 10.3581 11.875 10.375H7C6.54297 10.3581 6.16211 10.1973 5.85742 9.89258C5.53581 9.58789 5.36654 9.20703 5.34961 8.75V2.25C5.36654 1.79297 5.52734 1.41211 5.83203 1.10742C6.13672 0.802734 6.51758 0.641927 6.97461 0.625H11.1387C11.3587 0.625 11.5449 0.701172 11.6973 0.853516L13.2715 2.42773ZM12.2812 8.75H12.2559V3.875H11.0625C10.8255 3.875 10.6309 3.79883 10.4785 3.64648C10.3262 3.49414 10.25 3.29948 10.25 3.0625L10.2246 1.84375H6.97461C6.7207 1.8776 6.58529 2.01302 6.56836 2.25V8.75C6.58529 9.00391 6.7207 9.13932 6.97461 9.15625H11.875C12.1289 9.13932 12.2643 9.00391 12.2812 8.75ZM7.40625 12L7.43164 11.1875H8.625V12C8.60807 12.457 8.44727 12.8379 8.14258 13.1426C7.83789 13.4473 7.45703 13.6081 7 13.625H2.125C1.66797 13.6081 1.28711 13.4473 0.982422 13.1426C0.677734 12.8379 0.516927 12.457 0.5 12V5.5C0.516927 5.04297 0.677734 4.66211 0.982422 4.35742C1.28711 4.05273 1.66797 3.89193 2.125 3.875H4.5625V5.09375H2.125C1.87109 5.11068 1.73568 5.24609 1.71875 5.5L1.69336 12C1.71029 12.2539 1.8457 12.3893 2.09961 12.4062H7C7.25391 12.3893 7.38932 12.2539 7.40625 12Z" fill="#B0B0B2"/>
</svg>
