<svg width="12" height="14" viewBox="0 0 12 14" fill="none" xmlns="http://www.w3.org/2000/svg">
<path d="M3.74023 1.08203C3.89258 0.794271 4.13802 0.641927 4.47656 0.625H7.52344C7.86198 0.641927 8.10742 0.794271 8.25977 1.08203L8.4375 1.4375H10.875C11.112 1.4375 11.3066 1.51367 11.459 1.66602C11.6113 1.81836 11.6875 2.01302 11.6875 2.25C11.6875 2.48698 11.6113 2.68164 11.459 2.83398C11.3066 2.98633 11.112 3.0625 10.875 3.0625H1.125C0.888021 3.0625 0.693359 2.98633 0.541016 2.83398C0.388672 2.68164 0.3125 2.48698 0.3125 2.25C0.3125 2.01302 0.388672 1.81836 0.541016 1.66602C0.693359 1.51367 0.888021 1.4375 1.125 1.4375H3.5625L3.74023 1.08203ZM1.125 3.875H10.875V12C10.8581 12.457 10.6973 12.8379 10.3926 13.1426C10.0879 13.4473 9.70703 13.6081 9.25 13.625H2.75C2.29297 13.6081 1.91211 13.4473 1.60742 13.1426C1.30273 12.8379 1.14193 12.457 1.125 12V3.875ZM3.5625 5.5C3.30859 5.51693 3.17318 5.65234 3.15625 5.90625V11.5938C3.17318 11.8477 3.30859 11.9831 3.5625 12C3.81641 11.9831 3.95182 11.8477 3.96875 11.5938V5.90625C3.95182 5.65234 3.81641 5.51693 3.5625 5.5ZM6 5.5C5.74609 5.51693 5.61068 5.65234 5.59375 5.90625V11.5938C5.61068 11.8477 5.74609 11.9831 6 12C6.25391 11.9831 6.38932 11.8477 6.40625 11.5938V5.90625C6.38932 5.65234 6.25391 5.51693 6 5.5ZM8.4375 5.5C8.18359 5.51693 8.04818 5.65234 8.03125 5.90625V11.5938C8.04818 11.8477 8.18359 11.9831 8.4375 12C8.69141 11.9831 8.82682 11.8477 8.84375 11.5938V5.90625C8.82682 5.65234 8.69141 5.51693 8.4375 5.5Z" fill="#B0B0B2"/>
</svg>
