<svg width="14" height="14" viewBox="0 0 14 14" fill="none" xmlns="http://www.w3.org/2000/svg">
<path d="M9.7168 1.10742C10.0553 0.802734 10.4362 0.650391 10.8594 0.650391C11.2995 0.650391 11.6803 0.802734 12.002 1.10742L13.0176 2.12305C13.3223 2.46159 13.4746 2.84245 13.4746 3.26562C13.4746 3.70573 13.3223 4.08659 13.0176 4.4082L11.7734 5.65234L8.47266 2.35156L9.7168 1.10742ZM7.91406 2.91016L11.2148 6.21094L5.27344 12.1523C5.0026 12.4062 4.68945 12.5924 4.33398 12.7109L1.28711 13.5996C1.05013 13.6673 0.847005 13.6165 0.677734 13.4473C0.508464 13.278 0.457682 13.0749 0.525391 12.8379L1.41406 9.79102C1.53255 9.41862 1.72721 9.10547 1.99805 8.85156L7.91406 2.91016Z" fill="#B0B0B2"/>
</svg>
