<svg xmlns="http://www.w3.org/2000/svg" width="112" height="26" viewBox="0 0 112 26" fill="none">
  <path d="M23.7237 21.9355C25.1898 20.4725 26.2636 18.752 26.9347 16.9181C25.5512 14.7751 23.6411 12.9927 21.4007 11.7563C21.5039 13.7963 20.7709 15.8672 19.2119 17.4332C17.3225 19.3186 14.669 19.9883 12.2324 19.4423C10.9005 19.1435 9.6306 18.4738 8.58782 17.4332C7.0288 15.8775 6.29575 13.7963 6.39899 11.7563C4.14822 12.9927 2.24849 14.7751 0.86499 16.9181C1.53609 18.7417 2.59953 20.4622 4.07595 21.9355C9.50671 27.3548 18.3033 27.3548 23.7341 21.9355H23.7237Z" fill="#075AD3"/>
  <path d="M13.8945 14.2289C15.3828 14.2289 16.5892 13.025 16.5892 11.5399C16.5892 10.0548 15.3828 8.85083 13.8945 8.85083C12.4062 8.85083 11.1998 10.0548 11.1998 11.5399C11.1998 13.025 12.4062 14.2289 13.8945 14.2289Z" fill="#075AD3"/>
  <g style="mix-blend-mode:multiply" opacity="0.5">
    <path d="M6.69841 14.2496C6.46094 13.4357 6.3577 12.5909 6.39899 11.7563C4.14822 12.9927 2.24849 14.7751 0.86499 16.9181C1.23668 17.9174 1.72194 18.8756 2.32076 19.7823C3.23966 17.5877 4.77803 15.6508 6.69841 14.2496Z" fill="#65E5CC"/>
  </g>
  <g style="mix-blend-mode:multiply" opacity="0.5">
    <path d="M21.3907 11.7563C21.432 12.5909 21.3288 13.4357 21.0913 14.2496C23.1356 15.3726 24.8185 17.1447 25.7993 19.2671C26.2536 18.515 26.6253 17.732 26.9247 16.9181C25.5412 14.7751 23.6312 12.9927 21.3907 11.7563Z" fill="#4A00FF"/>
  </g>
  <path d="M4.06546 2.31962C0.431185 5.95652 -0.766473 11.0976 0.472483 15.7339C0.57573 16.1357 0.70995 16.5272 0.854495 16.9187C2.238 14.7757 4.14805 12.9934 6.3885 11.757C6.48142 9.96432 7.20415 8.20254 8.57732 6.83226C8.93869 6.47166 9.3207 6.16257 9.72336 5.8947C10.6319 5.29714 11.1895 4.29776 11.1895 3.21597C11.1895 0.702076 8.38115 -0.853651 6.27493 0.526928C5.49026 1.04207 4.74688 1.63963 4.05513 2.32992L4.06546 2.31962Z" fill="#373737"/>
  <path d="M27.3683 8.73784C26.7798 6.3888 25.5615 4.16339 23.7134 2.31918C23.0216 1.62889 22.2782 1.03133 21.4936 0.516186C19.3873 -0.864394 16.579 0.691334 16.579 3.20522C16.579 4.28702 17.1366 5.2864 18.0451 5.88396C18.4581 6.15183 18.8401 6.47122 19.2015 6.83182C20.5747 8.2021 21.2974 9.96388 21.3903 11.7566C23.6411 12.9929 25.5408 14.7753 26.9243 16.9183C27.8948 14.2911 28.0394 11.4372 27.3683 8.73784Z" fill="#373737"/>
  <path d="M32.1793 22.9456C31.8903 22.9456 31.6734 22.8838 31.5289 22.7498C31.3843 22.6159 31.3121 22.3892 31.3121 22.0596V20.9984C31.3121 20.6687 31.3843 20.442 31.5289 20.3081C31.6734 20.1741 31.8903 20.1123 32.1793 20.1123H35.2664V16.7021C34.0688 16.4239 33.1292 15.9088 32.4581 15.167C31.7767 14.4252 31.436 13.4464 31.436 12.2204V6.9041C31.436 6.14169 31.5702 5.472 31.8593 4.88474C32.1484 4.29748 32.5304 3.81325 33.0466 3.41144C33.5525 3.01993 34.172 2.72115 34.8947 2.52539C35.6174 2.32964 36.4124 2.22661 37.29 2.22661C38.1676 2.22661 38.9626 2.32964 39.6853 2.52539C40.4081 2.72115 41.0172 3.01993 41.5335 3.41144C42.0394 3.80294 42.442 4.29748 42.7208 4.88474C42.9996 5.472 43.1441 6.14169 43.1441 6.9041V12.2204C43.1441 13.4361 42.8034 14.4252 42.1323 15.167C41.4509 15.9088 40.5216 16.4239 39.3446 16.7021V20.1123H42.4317C42.7208 20.1123 42.9376 20.1741 43.0822 20.3081C43.2267 20.442 43.299 20.6687 43.299 20.9984V22.0596C43.299 22.3892 43.2267 22.6159 43.0822 22.7498C42.9376 22.8838 42.7208 22.9456 42.4317 22.9456H32.2103H32.1793ZM39.1691 6.84228C39.1691 6.49198 39.1175 6.2035 39.0143 5.97684C38.911 5.75018 38.7665 5.55443 38.5909 5.41019C38.4154 5.26595 38.2193 5.15261 37.9921 5.0908C37.765 5.02898 37.5275 4.98777 37.2694 4.98777C36.7532 4.98777 36.3195 5.13201 35.9375 5.41019C35.5658 5.68836 35.3697 6.17259 35.3697 6.84228V12.2616C35.3697 12.9416 35.5555 13.4155 35.9375 13.6937C36.3092 13.9718 36.7532 14.1161 37.2694 14.1161C37.5275 14.1161 37.765 14.0852 37.9921 14.013C38.2193 13.9512 38.4154 13.8379 38.5909 13.6937C38.7665 13.5494 38.911 13.3537 39.0143 13.127C39.1175 12.9003 39.1691 12.6119 39.1691 12.2616V6.84228ZM45.8492 22.9456C45.5291 22.9456 45.302 22.8735 45.1781 22.7189C45.0542 22.5747 44.9819 22.348 44.9819 22.0493V3.11265C44.9819 2.81387 45.0438 2.59751 45.1781 2.44297C45.302 2.29873 45.5291 2.21631 45.8492 2.21631H48.1929C48.5129 2.21631 48.7401 2.28843 48.864 2.44297C48.9878 2.58721 49.0498 2.81387 49.0498 3.11265V10.9222H49.9377C50.2268 10.9222 50.4436 10.984 50.5882 11.118C50.7327 11.2519 50.805 11.4786 50.805 11.8082V14.1058C50.805 14.4355 50.7327 14.6621 50.5882 14.7961C50.4436 14.93 50.2268 14.9918 49.9377 14.9918H49.0498V22.0389C49.0498 22.3377 48.9878 22.5541 48.864 22.7086C48.7401 22.8529 48.5129 22.9353 48.1929 22.9353H45.8492V22.9456Z" fill="#075AD3"/>
  <path d="M51.6001 7.31621C51.6001 6.5435 51.693 5.8429 51.8892 5.21443C52.0854 4.58596 52.3951 4.05021 52.8184 3.60719C53.2417 3.16417 53.8199 2.82418 54.522 2.57691C55.224 2.33994 56.0913 2.21631 57.1341 2.21631C58.1769 2.21631 59.0235 2.33994 59.7359 2.57691C60.4483 2.81387 61.0162 3.15387 61.4498 3.60719C61.8834 4.05021 62.1932 4.58596 62.379 5.21443C62.5752 5.8429 62.6681 6.5435 62.6681 7.31621V17.3512C62.6681 18.1239 62.5752 18.8245 62.379 19.4529C62.1932 20.0814 61.8731 20.6172 61.4498 21.0602C61.0162 21.5032 60.4483 21.8432 59.7359 22.0905C59.0235 22.3274 58.1562 22.4511 57.1341 22.4511C56.112 22.4511 55.224 22.3274 54.522 22.0905C53.8199 21.8535 53.252 21.5135 52.8184 21.0602C52.3848 20.6069 52.075 20.0814 51.8892 19.4529C51.693 18.8245 51.6001 18.1239 51.6001 17.3512V7.31621ZM55.668 17.8766C55.668 18.4845 55.7713 18.9687 55.9777 19.3087C56.1842 19.659 56.5662 19.8238 57.1238 19.8238C57.6813 19.8238 58.0633 19.6487 58.2698 19.3087C58.4763 18.9687 58.5796 18.4845 58.5796 17.8766V6.79076C58.5796 6.1829 58.4763 5.69866 58.2698 5.35867C58.0633 5.01868 57.6813 4.84353 57.1238 4.84353C56.5662 4.84353 56.1842 5.01868 55.9777 5.35867C55.7713 5.70897 55.668 6.1829 55.668 6.79076V17.8663V17.8766ZM66.6741 22.9456C66.354 22.9456 66.1269 22.8735 66.003 22.7189C65.8791 22.5747 65.8068 22.348 65.8068 22.0493V3.11265C65.8068 2.81387 65.8687 2.59751 66.003 2.44297C66.1269 2.29873 66.354 2.21631 66.6741 2.21631H69.0178C69.3378 2.21631 69.565 2.28843 69.6889 2.44297C69.8128 2.58721 69.8747 2.81387 69.8747 3.11265V22.0493C69.8747 22.348 69.8128 22.5644 69.6889 22.7189C69.565 22.8632 69.3378 22.9456 69.0178 22.9456H66.6741Z" fill="#075AD3"/>
  <path d="M73.2096 22.946C72.9205 22.946 72.7037 22.8842 72.5592 22.7503C72.4146 22.6163 72.3423 22.3897 72.3423 22.06V20.9679C72.3423 20.6382 72.4146 20.4115 72.5592 20.2776C72.7037 20.1437 72.9205 20.0819 73.2096 20.0819H89.6568C89.9458 20.0819 90.1627 20.1437 90.3072 20.2776C90.4518 20.4115 90.524 20.6382 90.524 20.9679V22.06C90.524 22.3897 90.4518 22.6163 90.3072 22.7503C90.1627 22.8842 89.9458 22.946 89.6568 22.946H73.2096ZM83.462 5.11184V6.08031C83.462 6.41 83.5652 6.7603 83.782 7.1312C83.9989 7.5021 84.2776 7.873 84.6287 8.2439C84.9797 8.6148 85.3824 8.98571 85.8366 9.34631C86.2909 9.7069 86.7555 10.0469 87.2201 10.3457C87.6848 10.6445 88.1494 10.9226 88.614 11.1596C89.0683 11.3966 89.4709 11.5717 89.822 11.6954C89.9665 11.7469 90.0801 11.8602 90.1523 12.0456C90.2349 12.2311 90.2762 12.4269 90.2762 12.6432V15.1365C90.2762 15.3838 90.2246 15.5177 90.111 15.5486C89.9975 15.5692 89.8633 15.5589 89.7084 15.5074C89.0992 15.3116 88.4281 15.0335 87.6744 14.6626C86.9207 14.302 86.167 13.8899 85.403 13.4365C84.639 12.9832 83.9059 12.499 83.2142 11.9941C82.5224 11.479 81.9236 10.9845 81.428 10.4899C80.9531 10.9845 80.3543 11.4893 79.6522 11.9941C78.9501 12.5093 78.2171 12.9832 77.4634 13.4365C76.7097 13.8899 75.9456 14.302 75.1919 14.6626C74.4382 15.0232 73.7568 15.3013 73.1683 15.5074C73.0135 15.5589 72.8689 15.5692 72.7657 15.5486C72.6624 15.528 72.6005 15.3838 72.6005 15.1365V12.6432C72.6005 12.4269 72.6418 12.2311 72.7244 12.0456C72.807 11.8602 72.9205 11.7469 73.0547 11.6954C73.4058 11.5614 73.8084 11.3863 74.2627 11.1493C74.717 10.9123 75.1816 10.6548 75.6566 10.3457C76.1315 10.0366 76.5858 9.7069 77.0401 9.34631C77.4943 8.98571 77.897 8.6148 78.248 8.2439C78.5991 7.873 78.8778 7.5021 79.0947 7.1312C79.3115 6.7603 79.4147 6.41 79.4147 6.08031V5.11184H73.4574C73.1683 5.11184 72.9515 5.05003 72.807 4.91609C72.6624 4.78215 72.5901 4.55549 72.5901 4.2258V3.11309C72.5901 2.7834 72.6624 2.55674 72.807 2.4228C72.9515 2.28887 73.1683 2.22705 73.4574 2.22705H89.4193C89.7084 2.22705 89.9252 2.28887 90.0697 2.4228C90.2143 2.55674 90.2866 2.7834 90.2866 3.11309V4.2258C90.2866 4.55549 90.2143 4.78215 90.0697 4.91609C89.9252 5.05003 89.7084 5.11184 89.4193 5.11184H83.462Z" fill="#075AD3"/>
  <path d="M93.3222 14.5389C93.0331 14.5389 92.8163 14.4771 92.6717 14.3432C92.5272 14.2092 92.4549 13.9826 92.4549 13.6529V12.5917C92.4549 12.262 92.5272 12.0353 92.6717 11.9014C92.8163 11.7675 93.0331 11.7057 93.3222 11.7057H99.7647V9.79963H96.7293C96.1201 9.79963 95.5626 9.72751 95.0464 9.57297C94.5301 9.42873 94.0759 9.20207 93.6938 8.89298C93.3118 8.5839 93.0124 8.19239 92.7956 7.71846C92.5788 7.24453 92.4755 6.66757 92.4755 6.00819C92.4755 5.34881 92.5788 4.80276 92.7956 4.32883C93.0124 3.8549 93.3118 3.45309 93.6938 3.144C94.0759 2.83492 94.5301 2.59795 95.0464 2.45371C95.5626 2.30947 96.1305 2.22705 96.7603 2.22705H106.837C107.457 2.22705 108.024 2.29917 108.551 2.45371C109.067 2.59795 109.522 2.83492 109.904 3.144C110.286 3.45309 110.585 3.8549 110.802 4.32883C111.019 4.80276 111.122 5.36941 111.122 6.00819C111.122 6.64696 111.019 7.23423 110.802 7.71846C110.585 8.20269 110.286 8.5839 109.904 8.89298C109.522 9.20207 109.067 9.42873 108.551 9.57297C108.035 9.71721 107.467 9.79963 106.868 9.79963H103.833V11.7057H110.275C110.564 11.7057 110.781 11.7675 110.926 11.9014C111.07 12.0353 111.142 12.262 111.142 12.5917V13.6529C111.142 13.9826 111.07 14.2092 110.926 14.3432C110.781 14.4771 110.564 14.5389 110.275 14.5389H93.3531H93.3222ZM111.112 22.0497C111.112 22.3485 111.05 22.5648 110.915 22.7194C110.791 22.8636 110.564 22.946 110.244 22.946H93.3222C93.0021 22.946 92.775 22.8739 92.6511 22.7194C92.5272 22.5751 92.4549 22.3485 92.4549 22.0497V17.1765C92.4549 16.8777 92.5168 16.6613 92.6511 16.5068C92.775 16.3625 93.0021 16.2801 93.3222 16.2801H95.6659C95.9859 16.2801 96.2131 16.3522 96.337 16.5068C96.4608 16.651 96.5331 16.8777 96.5331 17.1765V20.0922H110.255C110.575 20.0922 110.802 20.1643 110.926 20.3188C111.05 20.4631 111.122 20.6897 111.122 20.9885V22.0497H111.112ZM106.269 6.92514C106.641 6.92514 106.889 6.84272 107.033 6.67787C107.178 6.51303 107.25 6.28637 107.25 6.00819C107.25 5.40032 106.92 5.09124 106.269 5.09124H97.2971C96.6467 5.09124 96.3163 5.40032 96.3163 6.00819C96.3163 6.28637 96.3886 6.51303 96.5331 6.67787C96.6777 6.84272 96.9358 6.92514 97.2971 6.92514H106.269Z" fill="#075AD3"/>
</svg>