<svg width="53" height="86" viewBox="0 0 53 86" fill="none" xmlns="http://www.w3.org/2000/svg">
<path d="M0.838282 34.5V22.7H13.0383V34.5H0.838282ZM0.838282 70.7V58.9H13.0383V70.7H0.838282ZM42.9797 85.8C37.5797 80.7333 33.1464 74.6667 29.6797 67.6C26.213 60.5333 24.4797 52.7333 24.4797 44.2V42.4C24.4797 33.8667 26.213 26.1 29.6797 19.1C33.1464 12.0333 37.5797 5.96666 42.9797 0.899999H52.8797C47.9464 6.36666 43.9464 12.6 40.8797 19.6C37.813 26.6 36.2797 33.9 36.2797 41.5V44.3C36.2797 51.8333 37.8464 59.3 40.9797 66.7C44.113 74.0333 48.0797 80.4 52.8797 85.8H42.9797Z" fill="#808191"/>
</svg>
